PathFileType	4	(X/Y/Z)	/Users/itak/Documents/Research/Walk-IL/dataset/trc/00090_00006.trc
DataRate	CameraRate	NumFrames	NumMarkers	Units	OrigDataRate	OrigDataStartFrame	OrigNumFrames
100.000000	100.000000	4	56	mm	100.000000	256	513
Frame#	Time	RPSI			LPSI			L3			STRN			T10			C7			CLAV			RBAK			LBAK			LSHO			LUPA			LAEL			LAOL			LWTS			LWPS			LFRA			LIFD			LHPS			LHTS			RSHO			RUPA			RAEL			RAOL			RWTS			RWPS			RFRA			RIFD			RHPS			RBHD			LFHD			RFHD			LBHD			LHIP			RHIP			RASI			LASI			LKNE			LTHI			LANK			LTIP			LTOE			LMT1			LMT5			LHEE			RKNE			RTHI			RANK			RTIP			RTOE			RMT1			RMT5			RHEE			RHTS			*53			*54			*55			
		X1	Y1	Z1	X2	Y2	Z2	X3	Y3	Z3	X4	Y4	Z4	X5	Y5	Z5	X6	Y6	Z6	X7	Y7	Z7	X8	Y8	Z8	X9	Y9	Z9	X10	Y10	Z10	X11	Y11	Z11	X12	Y12	Z12	X13	Y13	Z13	X14	Y14	Z14	X15	Y15	Z15	X16	Y16	Z16	X17	Y17	Z17	X18	Y18	Z18	X19	Y19	Z19	X20	Y20	Z20	X21	Y21	Z21	X22	Y22	Z22	X23	Y23	Z23	X24	Y24	Z24	X25	Y25	Z25	X26	Y26	Z26	X27	Y27	Z27	X28	Y28	Z28	X29	Y29	Z29	X30	Y30	Z30	X31	Y31	Z31	X32	Y32	Z32	X33	Y33	Z33	X34	Y34	Z34	X35	Y35	Z35	X36	Y36	Z36	X37	Y37	Z37	X38	Y38	Z38	X39	Y39	Z39	X40	Y40	Z40	X41	Y41	Z41	X42	Y42	Z42	X43	Y43	Z43	X44	Y44	Z44	X45	Y45	Z45	X46	Y46	Z46	X47	Y47	Z47	X48	Y48	Z48	X49	Y49	Z49	X50	Y50	Z50	X51	Y51	Z51	X52	Y52	Z52	X53	Y53	Z53	X54	Y54	Z54	X55	Y55	Z55	X56	Y56	Z56	

257	2.56	-663.8112182617188	1007.919494628906	190.3852691650391	-565.0678100585938	993.387451171875	43.74901962280273	-612.908203125	1062.73388671875	116.8947143554688	-395.7646789550781	1254.669067382812	249.4640197753906	-623.1350708007812	1196.305541992188	110.490478515625	-564.6344604492188	1461.32421875	133.7572479248047	-415.2387390136719	1369.4326171875	227.9747467041016	-663.7332153320312	1328.06591796875	169.0110473632812	-535.1969604492188	1419.689819335938	37.61214447021484	-410.8663635253906	1418.783081054688	24.12560081481934	-405.3558349609375	1294.433471679688	-58.02901840209961	-406.1801452636719	1084.307861328125	-89.44588470458984	-495.388916015625	1072.994262695312	-31.46902465820312	-372.8740539550781	829.9017333984375	-28.37797927856445	-407.7435302734375	832.6303100585938	-104.8530731201172	-397.7207946777344	974.3045654296875	-102.0663604736328	-394.7631225585938	645.11962890625	-26.32805061340332	-388.1763305664062	747.79052734375	-100.1490173339844	-360.4055786132812	746.1806030273438	-34.03696441650391	-601.6744384765625	1429.492065429688	318.3123168945312	-646.7376708984375	1361.94677734375	369.021240234375	-694.839111328125	1098.520874023438	389.7420043945312	-634.129150390625	1072.979125976562	314.6345520019531	-536.3592529296875	859.0748901367188	435.1473388671875	-619.5420532226562	836.4248046875	446.2993469238281	-684.6412353515625	1017.397521972656	405.8914489746094	-507.9811401367188	674.8757934570312	426.7686462402344	-580.663818359375	752.3674926757812	473.6309204101562	-551.05078125	1633.8564453125	186.5098419189453	-352.6217956542969	1659.82373046875	280.9497375488281	-466.2776794433594	1648.691284179688	334.375732421875	-432.3262634277344	1653.78076171875	121.3092269897461	-424.5915222167969	935.2902221679688	36.25395584106445	-658.8295288085938	935.8917236328125	291.1637573242188	-546.4244384765625	950.4199829101562	350.1987915039062	-371.8529052734375	949.107666015625	147.1495208740234	-285.7998046875	518.73388671875	216.5068054199219	-317.5145874023438	636.5691528320312	132.3008270263672	-226.0879974365234	47.40190887451172	194.0893859863281	-247.9464416503906	274.3790283203125	196.2263488769531	-121.6131820678711	85.71969604492188	364.7238464355469	-189.4518127441406	69.14505004882812	354.9495849609375	-138.4333953857422	56.65199661254883	257.2254028320312	-317.1815490722656	37.54384994506836	196.5848999023438	-616.6598510742188	491.8270568847656	246.4247131347656	-605.7017822265625	753.6392822265625	320.1141052246094	-800.9014282226562	65.57013702392578	85.2177734375	-660.0748901367188	374.0335693359375	212.7745056152344	-590.7943725585938	40.23031616210938	129.5969848632812	-631.482177734375	47.88965225219727	72.50369262695312	-694.9861450195312	48.6926383972168	147.1229553222656	-822.2212524414062	83.48960113525391	17.05999374389648	-504.6729736328125	762.6561279296875	454.1306457519531	nan	nan	nan	nan	nan	nan	nan	nan	nan	
258	2.57	-655.1990356445312	1008.453796386719	194.5224914550781	-556.0841674804688	994.4078979492188	48.10819244384766	-603.859130859375	1063.008544921875	120.9706954956055	-387.5709228515625	1255.660278320312	253.7741851806641	-614.2135620117188	1196.682861328125	113.7327651977539	-556.1063842773438	1461.843872070312	136.6071166992188	-407.1526794433594	1370.348388671875	231.99755859375	-655.2257690429688	1328.482055664062	171.505615234375	-525.988037109375	1420.011962890625	40.65008544921875	-401.5016784667969	1419.366577148438	28.03944396972656	-394.9183349609375	1294.599731445312	-53.67770004272461	-394.5381469726562	1084.279541015625	-83.83039093017578	-484.4664611816406	1072.921752929688	-26.77781105041504	-361.8697204589844	829.8345947265625	-22.45115089416504	-395.8294982910156	832.6852416992188	-99.3140869140625	-385.9548645019531	974.30908203125	-96.27845001220703	-383.8260803222656	645.0440673828125	-20.97008323669434	-376.4018859863281	747.8385620117188	-94.55027008056641	-349.3329467773438	746.1012573242188	-28.08249473571777	-594.2246704101562	1430.240844726562	321.0078125	-639.7346801757812	1362.748657226562	371.327392578125	-688.879638671875	1099.70068359375	391.4919738769531	-627.4434204101562	1073.894653320312	317.0782470703125	-532.6173706054688	859.0284423828125	438.0087585449219	-616.1533203125	837.0454711914062	448.3925476074219	-679.3941040039062	1018.561401367188	407.6637573242188	-505.6558837890625	674.7036743164062	429.8138732910156	-578.1779174804688	752.6935424804688	476.0176391601562	-543.2279052734375	1634.54296875	189.2791900634766	-345.6661682128906	1660.859619140625	285.3429870605469	-459.6943054199219	1649.55224609375	337.8244018554688	-424.0220336914062	1654.63525390625	125.0480194091797	-415.5402526855469	936.2777099609375	41.27643585205078	-650.6119995117188	936.2174682617188	295.2643127441406	-538.1419677734375	951.026123046875	354.5816955566406	-363.0146484375	950.1228637695312	152.1961517333984	-279.5090026855469	518.9603271484375	222.2319488525391	-310.3662414550781	637.2113647460938	138.2472991943359	-225.1432037353516	47.10613632202148	195.0479736328125	-243.4209136962891	273.9192199707031	200.5569458007812	-118.9371871948242	79.78865051269531	366.2706298828125	-187.2762603759766	64.7396240234375	356.3954162597656	-137.2135162353516	53.61347961425781	258.0730285644531	-316.3869018554688	38.82183074951172	197.5598907470703	-607.4498901367188	491.8070068359375	251.0325622558594	-597.2003784179688	753.8643188476562	324.1947937011719	-799.5237426757812	69.87559509277344	86.09869384765625	-652.9609375	374.6199340820312	216.9900665283203	-590.8809814453125	40.24795150756836	129.4586029052734	-630.975830078125	48.39532852172852	72.86580657958984	-694.3156127929688	49.29460525512695	147.7914581298828	-820.1768188476562	89.56205749511719	18.17742729187012	-501.9733276367188	762.3858032226562	457.2023620605469	nan	nan	nan	nan	nan	nan	nan	nan	nan	
259	2.58	-646.5696411132812	1009.214904785156	198.7162933349609	-547.1386108398438	995.6095581054688	52.53018951416016	-594.80615234375	1063.507446289062	125.1238098144531	-379.37890625	1256.902221679688	258.1238708496094	-605.3330688476562	1197.265869140625	117.0168762207031	-547.5553588867188	1462.56689453125	139.4711456298828	-399.0779418945312	1371.511474609375	236.0438995361328	-646.7125244140625	1329.1220703125	174.0080261230469	-516.7529296875	1420.555541992188	43.71717071533203	-392.104736328125	1420.226196289062	32.00279235839844	-384.3791809082031	1295.055908203125	-49.26821517944336	-382.7494201660156	1084.520629882812	-78.01634216308594	-473.381591796875	1073.120849609375	-21.9407787322998	-350.6726684570312	830.0420532226562	-16.30543899536133	-383.6383666992188	833.032958984375	-93.56504058837891	-373.9794921875	974.6085815429688	-90.27233123779297	-372.7107849121094	645.24169921875	-15.45316886901855	-364.3500671386719	748.184814453125	-88.74639892578125	-338.1079406738281	746.2810668945312	-21.93044853210449	-586.770751953125	1431.25439453125	323.6934814453125	-632.730712890625	1363.830322265625	373.6266174316406	-682.93017578125	1101.184326171875	393.1066589355469	-620.6692504882812	1075.121704101562	319.4757385253906	-529.0093994140625	859.21630859375	440.7950744628906	-612.9197387695312	837.9600830078125	450.3515014648438	-674.19140625	1020.030456542969	409.2904052734375	-503.5899047851562	674.7571411132812	432.7361450195312	-575.91650390625	753.2755126953125	478.2697448730469	-535.4442749023438	1635.428833007812	192.0805358886719	-338.7554931640625	1662.088256835938	289.7656860351562	-453.14501953125	1650.5830078125	341.3044128417969	-415.7521057128906	1655.71826171875	128.8302764892578	-406.4908142089844	937.4454956054688	46.31360626220703	-642.39794921875	936.8060302734375	299.4629211425781	-529.8575439453125	951.9169311523438	358.9951477050781	-354.2053833007812	951.3035888671875	157.2756958007812	-273.272216796875	519.1963500976562	227.6381530761719	-303.1387939453125	637.97998046875	143.9806213378906	-224.2142028808594	46.81913375854492	195.8109130859375	-238.9961547851562	273.4989318847656	204.4895477294922	-116.377685546875	74.22320556640625	367.3749694824219	-185.2074890136719	60.84283447265625	357.5172424316406	-136.0266723632812	50.79664611816406	258.6319274902344	-315.6149597167969	40.02735900878906	198.4150238037109	-597.7399291992188	491.8731384277344	256.3385620117188	-588.49365234375	754.3283081054688	328.5321350097656	-797.79345703125	74.71488189697266	87.143310546875	-645.47119140625	375.4223937988281	221.7898559570312	-591.0317993164062	40.2734260559082	129.28662109375	-630.3705444335938	49.04455947875977	73.30371856689453	-693.5745849609375	49.93623352050781	148.5768737792969	-817.518310546875	96.36912536621094	19.5466423034668	-499.5149230957031	762.3168334960938	460.1907653808594	nan	nan	nan	nan	nan	nan	nan	nan	nan	
260	2.59	-637.94970703125	1010.173889160156	202.8965301513672	-538.218994140625	996.9312744140625	56.96831893920898	-585.7561645507812	1064.205322265625	129.3079528808594	-371.2203674316406	1258.350463867188	262.5277099609375	-596.4931030273438	1198.021240234375	120.3216171264648	-538.9881591796875	1463.45703125	142.3469390869141	-391.0361022949219	1372.88037109375	240.1298217773438	-638.2055053710938	1329.951904296875	176.5062408447266	-507.4859313964844	1421.289428710938	46.81949234008789	-382.6692199707031	1421.325073242188	36.03672027587891	-373.7323913574219	1295.77783203125	-44.78821182250977	-370.8414916992188	1085.015869140625	-72.03522491455078	-462.1632080078125	1073.56982421875	-16.98425102233887	-339.2850036621094	830.5194702148438	-9.930022239685059	-371.1751403808594	833.652587890625	-87.59615325927734	-361.8040161132812	975.1832275390625	-84.05956268310547	-361.4083251953125	645.6990966796875	-9.745475769042969	-352.0009765625	748.8156127929688	-82.71258544921875	-326.7228698730469	746.7090454101562	-15.55404853820801	-579.3455200195312	1432.506713867188	326.3583679199219	-625.7567749023438	1365.17236328125	375.91259765625	-677.009521484375	1102.945556640625	394.5927124023438	-613.836181640625	1076.63671875	321.826904296875	-525.536376953125	859.6339721679688	443.511474609375	-609.8231811523438	839.1569213867188	452.1846618652344	-669.038330078125	1021.776794433594	410.778076171875	-501.7684326171875	675.0233764648438	435.51513671875	-573.8536376953125	754.1015014648438	480.3880615234375	-527.717529296875	1636.472900390625	194.9112243652344	-331.9017333984375	1663.480712890625	294.2073974609375	-446.6400756835938	1651.758666992188	344.8118286132812	-407.5366516113281	1656.985595703125	132.6475982666016	-397.4410400390625	938.7112426757812	51.34891510009766	-634.218017578125	937.6470947265625	303.7042846679688	-521.6513671875	953.06201171875	363.4133911132812	-345.4399108886719	952.5722045898438	162.37841796875	-267.0794372558594	519.361572265625	232.6923522949219	-295.8255920410156	638.8118286132812	149.5075073242188	-223.3239440917969	46.51282501220703	196.3919677734375	-234.76904296875	273.0626831054688	207.9475860595703	-113.9601135253906	69.026611328125	368.1012573242188	-183.2642974853516	57.4403076171875	358.3487854003906	-134.8735961914062	48.18625640869141	258.9288635253906	-314.8753662109375	41.11525344848633	199.1544189453125	-587.5337524414062	491.9970397949219	262.44873046875	-579.6187133789062	755.0162353515625	333.1237487792969	-795.6382446289062	80.10490417480469	88.36269378662109	-637.567138671875	376.432861328125	227.2332458496094	-591.2481689453125	40.29837036132812	129.1041107177734	-629.6160278320312	49.87890625	73.85457611083984	-692.7496337890625	50.59684753417969	149.4818115234375	-814.1117553710938	103.9227600097656	21.20789909362793	-497.2831726074219	762.4398193359375	463.0896301269531	nan	nan	nan	nan	nan	nan	nan	nan	nan	
